<svg width="984" height="135" viewBox="0 0 984 135" fill="none" xmlns="http://www.w3.org/2000/svg">
<path d="M-3.30806e-06 132.699V1.78976H42.2514C51.5412 1.78976 59.2969 3.473 65.5185 6.83948C71.7827 10.1633 76.4915 14.7869 79.6449 20.7102C82.8409 26.5909 84.4389 33.3452 84.4389 40.973C84.4389 48.6008 82.8409 55.3338 79.6449 61.1719C76.4915 67.0099 71.804 71.5696 65.5824 74.8508C59.3608 78.1321 51.6477 79.7727 42.4432 79.7727H6.45596V68.8423H42.1236C48.9418 68.8423 54.6094 67.7131 59.1264 65.4545C63.6861 63.196 67.0739 59.9787 69.2898 55.8025C71.5483 51.6264 72.6776 46.6832 72.6776 40.973C72.6776 35.2628 71.5483 30.277 69.2898 26.0156C67.0312 21.7116 63.6222 18.3878 59.0625 16.044C54.5455 13.7003 48.8352 12.5284 41.9318 12.5284H11.9531V132.699H-3.30806e-06ZM57.7202 73.6364L89.9361 132.699H76.1293L44.233 73.6364H57.7202ZM113.555 132.699V1.78976H189.492V12.5284H125.508V61.8111H185.465V72.5497H125.508V121.96H190.771V132.699H113.555ZM220.621 132.699H208.093L255.714 1.78976H268.498L316.119 132.699H303.59L262.553 17.3224H261.658L220.621 132.699ZM229.634 82.5213H294.577V93.2599H229.634V82.5213ZM338.555 132.699V1.78976H350.508V121.96H412.894V132.699H338.555ZM504.812 39.4389C504.3 34.2827 502.106 30.277 498.228 27.4219C494.35 24.5667 489.087 23.1392 482.44 23.1392C477.923 23.1392 474.109 23.7784 470.998 25.0568C467.887 26.2926 465.501 28.0185 463.839 30.2344C462.219 32.4503 461.41 34.9645 461.41 37.777C461.325 40.1207 461.815 42.1662 462.88 43.9133C463.988 45.6605 465.501 47.1733 467.418 48.4517C469.336 49.6875 471.552 50.7741 474.066 51.7116C476.58 52.6065 479.265 53.3736 482.12 54.0128L493.881 56.8253C499.592 58.1037 504.833 59.8082 509.606 61.9389C514.379 64.0696 518.512 66.6903 522.006 69.8011C525.501 72.9119 528.207 76.5767 530.124 80.7954C532.085 85.0142 533.086 89.8508 533.129 95.3054C533.086 103.317 531.04 110.263 526.992 116.143C522.987 121.982 517.191 126.52 509.606 129.759C502.063 132.955 492.965 134.553 482.312 134.553C471.744 134.553 462.539 132.933 454.698 129.695C446.9 126.456 440.806 121.662 436.417 115.312C432.07 108.92 429.79 101.016 429.577 91.598H456.36C456.658 95.9872 457.915 99.652 460.131 102.592C462.39 105.49 465.394 107.685 469.144 109.176C472.937 110.625 477.219 111.349 481.992 111.349C486.68 111.349 490.749 110.668 494.201 109.304C497.695 107.94 500.401 106.044 502.319 103.615C504.237 101.186 505.195 98.3949 505.195 95.2415C505.195 92.3011 504.322 89.8295 502.575 87.8267C500.87 85.8239 498.356 84.1193 495.032 82.7131C491.751 81.3068 487.724 80.0284 482.951 78.8778L468.697 75.2983C457.66 72.6136 448.945 68.4162 442.553 62.706C436.161 56.9957 432.987 49.304 433.029 39.6307C432.987 31.7045 435.096 24.7798 439.357 18.8565C443.661 12.9332 449.563 8.30965 457.063 4.98578C464.563 1.66192 473.086 -1.5974e-05 482.631 -1.5974e-05C492.347 -1.5974e-05 500.827 1.66192 508.072 4.98578C515.359 8.30965 521.026 12.9332 525.075 18.8565C529.123 24.7798 531.211 31.6406 531.339 39.4389H504.812ZM546.76 24.6094V1.78976H654.274V24.6094H614.196V132.699H586.838V24.6094H546.76ZM678.548 132.699H648.888L694.08 1.78976H729.748L774.876 132.699H745.217L712.425 31.7045H711.403L678.548 132.699ZM676.694 81.2429H746.751V102.848H676.694V81.2429ZM769.65 24.6094V1.78976H877.164V24.6094H837.086V132.699H809.728V24.6094H769.65ZM894.87 132.699V1.78976H983.081V24.6094H922.548V55.8025H978.542V78.6221H922.548V109.879H983.336V132.699H894.87Z" fill="white"/>
</svg>
