<svg width="1094" height="135" viewBox="0 0 1094 135" fill="none" xmlns="http://www.w3.org/2000/svg">
<rect width="1094" height="135" fill="#1E1E1E"/>
<path d="M-3.30806e-06 132.699V1.78976H42.2514C51.5412 1.78976 59.2969 3.473 65.5185 6.83948C71.7827 10.1633 76.4915 14.7869 79.6449 20.7102C82.8409 26.5909 84.4389 33.3452 84.4389 40.973C84.4389 48.6008 82.8409 55.3338 79.6449 61.1719C76.4915 67.0099 71.804 71.5696 65.5824 74.8508C59.3608 78.1321 51.6477 79.7727 42.4432 79.7727H6.45596V68.8423H42.1236C48.9418 68.8423 54.6094 67.7131 59.1264 65.4545C63.6861 63.196 67.0739 59.9787 69.2898 55.8025C71.5483 51.6264 72.6776 46.6832 72.6776 40.973C72.6776 35.2628 71.5483 30.277 69.2898 26.0156C67.0312 21.7116 63.6222 18.3878 59.0625 16.044C54.5455 13.7003 48.8352 12.5284 41.9318 12.5284H11.9531V132.699H-3.30806e-06ZM57.7202 73.6364L89.9361 132.699H76.1293L44.233 73.6364H57.7202ZM113.555 132.699V1.78976H189.492V12.5284H125.508V61.8111H185.465V72.5497H125.508V121.96H190.771V132.699H113.555ZM220.621 132.699H208.093L255.714 1.78976H268.498L316.119 132.699H303.59L262.553 17.3224H261.658L220.621 132.699ZM229.634 82.5213H294.577V93.2599H229.634V82.5213ZM338.555 132.699V1.78976H350.508V121.96H412.894V132.699H338.555ZM433.796 132.699V1.78976L522.006 1.78976V24.6094H461.474V55.8025H517.468V78.6221H461.474V109.879H522.262V132.699H433.796ZM615.027 39.4389C614.515 34.2827 612.321 30.277 608.443 27.4219C604.565 24.5667 599.302 23.1392 592.654 23.1392C588.137 23.1392 584.324 23.7784 581.213 25.0568C578.102 26.2926 575.716 28.0185 574.054 30.2344C572.434 32.4503 571.625 34.9645 571.625 37.777C571.539 40.1207 572.029 42.1662 573.095 43.9133C574.203 45.6605 575.716 47.1733 577.633 48.4517C579.551 49.6875 581.767 50.7741 584.281 51.7116C586.795 52.6065 589.48 53.3736 592.335 54.0128L604.096 56.8253C609.806 58.1037 615.048 59.8082 619.821 61.9389C624.593 64.0696 628.727 66.6903 632.221 69.8011C635.716 72.9119 638.422 76.5767 640.339 80.7954C642.299 85.0142 643.301 89.8508 643.343 95.3054C643.301 103.317 641.255 110.263 637.207 116.143C633.201 121.982 627.406 126.52 619.821 129.759C612.278 132.955 603.18 134.553 592.527 134.553C581.958 134.553 572.754 132.933 564.913 129.695C557.115 126.456 551.021 121.662 546.632 115.312C542.285 108.92 540.005 101.016 539.792 91.598H566.575C566.873 95.9872 568.13 99.652 570.346 102.592C572.605 105.49 575.609 107.685 579.359 109.176C583.152 110.625 587.434 111.349 592.207 111.349C596.895 111.349 600.964 110.668 604.416 109.304C607.91 107.94 610.616 106.044 612.534 103.615C614.451 101.186 615.41 98.3949 615.41 95.2415C615.41 92.3011 614.537 89.8295 612.789 87.8267C611.085 85.8239 608.571 84.1193 605.247 82.7131C601.966 81.3068 597.939 80.0284 593.166 78.8778L578.912 75.2983C567.875 72.6136 559.16 68.4162 552.768 62.706C546.376 56.9957 543.201 49.304 543.244 39.6307C543.201 31.7045 545.311 24.7798 549.572 18.8565C553.876 12.9332 559.778 8.30965 567.278 4.98578C574.778 1.66192 583.301 -1.5974e-05 592.846 -1.5974e-05C602.562 -1.5974e-05 611.042 1.66192 618.287 4.98578C625.574 8.30965 631.241 12.9332 635.289 18.8565C639.338 24.7798 641.426 31.6406 641.554 39.4389H615.027ZM656.974 24.6094V1.78976H764.489V24.6094H724.411V132.699H697.053V24.6094H656.974ZM788.762 132.699H759.103L804.295 1.78976H839.963L885.091 132.699H855.431L822.64 31.7045H821.618L788.762 132.699ZM786.909 81.2429H856.966V102.848H786.909V81.2429ZM879.865 24.6094V1.78976H987.379V24.6094H947.301V132.699H919.943V24.6094H879.865ZM1005.09 132.699V1.78976H1093.3V24.6094H1032.76V55.8025H1088.76V78.6221H1032.76V109.879H1093.55V132.699H1005.09Z" fill="white"/>
</svg>
